# xmcd
#
# Track frame offsets:
# 150
# 15337
# 37838
# 53376
# 66769
# 87262
# 99083
# 110489
# 125539
# 144214
# 160514
# 176252
# 194617
# 208192
#
# Disc length: 3009 seconds
#
# Revision: 1
# Processed by: cddbd v1.5PL3 Copyright (c) Steve Scherf et al.
# Submitted via: Easy CD Ripper v2.00
#
DISCID=a50bbf0e
DTITLE=Eric Clapton - Me and Mr Johnson
DYEAR=2004
DGENRE=Blues
TTITLE0=When You Got a Good Friend - Eric Clapton
TTITLE1=Little Queen of Spades - Eric Clapton
TTITLE2=Theyre Red Hot - Eric Clapton
TTITLE3=Me and the Devil Blues - Eric Clapton
TTITLE4=Traveling Riverside Blues - Eric Clapton
TTITLE5=Last Fair Deal Gone Down - Eric Clapton
TTITLE6=Stop Breakin Down Blues - Eric Clapton
TTITLE7=Milkcows Calf Blues - Eric Clapton
TTITLE8=Kind Hearted Woman Blues - Eric Clapton
TTITLE9=Come on in My Kitchin - Eric Clapton
TTITLE10=If I Had Possession Over Judgem - Eric Clapton
TTITLE11=Love In Vain - Eric Clapton
TTITLE12=32-20 Blues - Eric Clapton
TTITLE13=Hell Hound on My Trail - Eric Clapton
EXTD=
EXTT0=
EXTT1=
EXTT2=
EXTT3=
EXTT4=
EXTT5=
EXTT6=
EXTT7=
EXTT8=
EXTT9=
EXTT10=
EXTT11=
EXTT12=
EXTT13=
PLAYORDER=
